PathFileType	4	(X/Y/Z)	F:\PHD\Matlab_Output_Files\Ahelaos\HopStudy\HopDistance\Right\HDR_2\HDR_2.trc
DataRate	CameraRate	NumFrames	NumMarkers	Units	OrigDataRate	OrigDataStartFrame	OrigNumFrames
100.000000	100.000000	9	46	m	100.000000	167	267
Frame#	Times			LFHD			RFHD			LBHD			RBHD			C7			T10			CLAV			STRN			RBAK			LSHO			LELB			LWRA			LWRB			LFIN			RSHO			RELB			RWRA			RWRB			RFIN			LASI			RASI			SACR			RPSI			LPSI			LTHI			LTHI2			LTHI3			LKNE			LTIB			LTIB2			LTIB3			LANK			LHEE			LTOE			LLatFoot			RTHI			RTHI2			RTHI3			RKNE			RTIB			RTIB2			RTIB3			RANK			RHEE			RTOE			RLatFoot
		X1	Y1	Z1	X2	Y2	Z2	X3	Y3	Z3	X4	Y4	Z4	X5	Y5	Z5	X6	Y6	Z6	X7	Y7	Z7	X8	Y8	Z8	X9	Y9	Z9	X10	Y10	Z10	X11	Y11	Z11	X12	Y12	Z12	X13	Y13	Z13	X14	Y14	Z14	X15	Y15	Z15	X16	Y16	Z16	X17	Y17	Z17	X18	Y18	Z18	X19	Y19	Z19	X20	Y20	Z20	X21	Y21	Z21	X22	Y22	Z22	X23	Y23	Z23	X24	Y24	Z24	X25	Y25	Z25	X26	Y26	Z26	X27	Y27	Z27	X28	Y28	Z28	X29	Y29	Z29	X30	Y30	Z30	X31	Y31	Z31	X32	Y32	Z32	X33	Y33	Z33	X34	Y34	Z34	X35	Y35	Z35	X36	Y36	Z36	X37	Y37	Z37	X38	Y38	Z38	X39	Y39	Z39	X40	Y40	Z40	X41	Y41	Z41	X42	Y42	Z42	X43	Y43	Z43	X44	Y44	Z44	X45	Y45	Z45	X46	Y46	Z46

167	1.67	-0.73097	1.5916	0.19861	-0.70798	1.58	0.31016	-0.88652	1.6843	0.23103	-0.84549	1.6552	0.35517	-1.0047	1.5516	0.2944	-1.2068	1.294	0.28535	-0.92654	1.4154	0.27466	-0.98332	1.2578	0.25547	-1.0821	1.4712	0.42482	-0.99628	1.5184	0.11578	-1.1839	1.2085	0.0071716	-1.1205	0.91163	-0.0071882	-1.1924	0.90636	-0.038886	-1.1374	0.84927	-0.058086	-0.92968	1.4671	0.43789	-1.1388	1.1626	0.5304	-1.0995	0.86932	0.47272	-1.1663	0.86312	0.5097	-1.1191	0.8006	0.52025	-1.0894	1.0577	0.12535	-1.0545	1.0187	0.35293	-1.2592	1.0956	0.26012	-1.2372	1.1023	0.31938	-1.2499	1.1282	0.21354	-1.1283	0.75047	0.043135	-1.0485	0.80698	0.030677	-1.0492	0.71911	0.022722	-1.0097	0.56696	0.034351	-1.1769	0.50199	0.04262	-1.1925	0.5665	0.047085	-1.2332	0.51893	0.051541	-1.4003	0.48207	0.09994	-1.4127	0.51337	0.14136	-1.3986	0.33095	0.091229	-1.462	0.3955	0.076433	-1.0741	0.72944	0.39241	-1.1666	0.69891	0.37131	-1.0944	0.65243	0.37316	-1.0774	0.492	0.32934	-1.134	0.2975	0.31825	-1.1961	0.31641	0.32708	-1.1821	0.26331	0.31663	-1.2482	0.10621	0.27104	-1.2952	0.11277	0.22208	-1.1281	0.046577	0.2652	-1.2096	0.024801	0.28999
168	1.68	-0.726	1.5866	0.19902	-0.7031	1.5754	0.31058	-0.88252	1.6784	0.23225	-0.84107	1.6496	0.3559	-0.9993	1.5467	0.29546	-1.2041	1.2914	0.28533	-0.92203	1.4098	0.27613	-0.98142	1.2526	0.256	-1.077	1.4665	0.42602	-0.99003	1.5125	0.11667	-1.1787	1.2036	0.0065625	-1.1176	0.90652	-0.0092545	-1.1904	0.90165	-0.038258	-1.137	0.8441	-0.059357	-0.92493	1.4603	0.43848	-1.1364	1.1573	0.5307	-1.0989	0.8634	0.47099	-1.1654	0.85847	0.50898	-1.1188	0.79516	0.51891	-1.0889	1.0549	0.12417	-1.0542	1.0149	0.35175	-1.2587	1.093	0.25981	-1.2367	1.0994	0.31909	-1.2494	1.126	0.21353	-1.1278	0.74795	0.042711	-1.0473	0.80549	0.030411	-1.0488	0.71694	0.022873	-1.0089	0.565	0.03512	-1.1761	0.5007	0.043082	-1.1911	0.56463	0.047034	-1.2327	0.51752	0.052144	-1.3993	0.48085	0.1002	-1.4119	0.5124	0.14153	-1.398	0.32972	0.091812	-1.4614	0.39452	0.076954	-1.0719	0.72625	0.39116	-1.1639	0.69548	0.36928	-1.0916	0.64914	0.37137	-1.0727	0.4897	0.32741	-1.1308	0.29554	0.31643	-1.1926	0.3158	0.3258	-1.1794	0.26242	0.31548	-1.2474	0.10621	0.27047	-1.2945	0.11282	0.22159	-1.128	0.046721	0.26488	-1.2096	0.024941	0.28967
169	1.69	-0.72152	1.5815	0.19927	-0.69819	1.5704	0.31115	-0.87839	1.6722	0.23286	-0.83647	1.6438	0.35698	-0.99385	1.5412	0.29664	-1.2016	1.2887	0.28578	-0.91787	1.4037	0.27693	-0.9795	1.2471	0.2563	-1.072	1.4613	0.42701	-0.98355	1.5067	0.11744	-1.1733	1.1989	0.0069834	-1.1149	0.90128	-0.011316	-1.1881	0.8967	-0.038583	-1.1358	0.83915	-0.060907	-0.91919	1.4539	0.43922	-1.1335	1.1519	0.53148	-1.0979	0.85837	0.47039	-1.1642	0.85305	0.5082	-1.1181	0.78959	0.51765	-1.0889	1.0518	0.12341	-1.054	1.0112	0.35071	-1.2583	1.09	0.25943	-1.236	1.0965	0.31883	-1.2488	1.1233	0.21321	-1.1271	0.74522	0.042157	-1.0465	0.8035	0.030324	-1.0481	0.71439	0.022607	-1.0077	0.56241	0.034989	-1.1751	0.49849	0.043305	-1.1902	0.56243	0.047251	-1.2315	0.51489	0.052541	-1.3986	0.47922	0.1007	-1.411	0.51098	0.14166	-1.3972	0.32835	0.092515	-1.4603	0.39281	0.077463	-1.0694	0.72336	0.38975	-1.1612	0.69221	0.36733	-1.0887	0.64598	0.36956	-1.0678	0.48757	0.32572	-1.1276	0.29412	0.31505	-1.1891	0.31509	0.32451	-1.1765	0.26154	0.31442	-1.2467	0.10621	0.26996	-1.2938	0.11309	0.22138	-1.1279	0.046761	0.26453	-1.2096	0.025037	0.28947
170	1.7	-0.7176	1.5765	0.20014	-0.69315	1.5652	0.31178	-0.87435	1.6661	0.2345	-0.83182	1.6377	0.3578	-0.98836	1.5357	0.29765	-1.1989	1.2858	0.28565	-0.91352	1.3975	0.27791	-0.97737	1.2413	0.25667	-1.0669	1.4559	0.42824	-0.97737	1.5007	0.11844	-1.1681	1.1936	0.0073742	-1.1117	0.89577	-0.013379	-1.1861	0.89142	-0.037923	-1.1344	0.83396	-0.062589	-0.91423	1.4469	0.44013	-1.1304	1.146	0.53223	-1.0968	0.85271	0.46961	-1.1629	0.84778	0.50793	-1.117	0.784	0.51656	-1.0889	1.0487	0.1225	-1.0539	1.0076	0.34954	-1.2578	1.0871	0.25906	-1.2354	1.0935	0.31831	-1.2479	1.1202	0.21265	-1.1262	0.74213	0.041618	-1.0461	0.80114	0.029748	-1.0475	0.71165	0.022466	-1.0064	0.55981	0.034979	-1.174	0.49629	0.043583	-1.1891	0.56044	0.04763	-1.2302	0.51326	0.052771	-1.3974	0.47731	0.10066	-1.4098	0.50905	0.14186	-1.3961	0.3263	0.093131	-1.4591	0.39073	0.078055	-1.0666	0.72056	0.38863	-1.1585	0.68853	0.36559	-1.0856	0.64293	0.36778	-1.0628	0.48531	0.32392	-1.1243	0.29291	0.31396	-1.1855	0.3145	0.32342	-1.1737	0.26079	0.31356	-1.2459	0.10632	0.26966	-1.2931	0.11349	0.22132	-1.1278	0.046727	0.26427	-1.2096	0.025078	0.28937
171	1.71	-0.71282	1.5706	0.20064	-0.68819	1.5596	0.31254	-0.87026	1.6597	0.2357	-0.82705	1.6314	0.35904	-0.98277	1.53	0.29876	-1.1961	1.2827	0.28556	-0.9092	1.391	0.27877	-0.97477	1.2358	0.25693	-1.0619	1.4503	0.42919	-0.97118	1.4944	0.11932	-1.1634	1.1882	0.0079254	-1.1087	0.89002	-0.015332	-1.1833	0.88628	-0.038079	-1.1325	0.82891	-0.064568	-0.9098	1.4391	0.44093	-1.1273	1.1403	0.53352	-1.0954	0.84704	0.4689	-1.1613	0.84204	0.50753	-1.1159	0.77767	0.51502	-1.0883	1.0453	0.12161	-1.0536	1.0039	0.34843	-1.2573	1.0842	0.25876	-1.2347	1.0907	0.31781	-1.2466	1.1174	0.21208	-1.1259	0.73907	0.041281	-1.0456	0.79805	0.029243	-1.0467	0.70907	0.022508	-1.0052	0.55734	0.035336	-1.1728	0.49325	0.043686	-1.1878	0.55791	0.047853	-1.2289	0.51065	0.052959	-1.396	0.47498	0.10127	-1.4085	0.50693	0.14216	-1.3949	0.32407	0.093742	-1.4579	0.38881	0.078463	-1.0635	0.718	0.38733	-1.1552	0.68518	0.36386	-1.0822	0.63995	0.36617	-1.0576	0.48317	0.32206	-1.1209	0.29137	0.31275	-1.1818	0.31385	0.32238	-1.1706	0.25974	0.31246	-1.245	0.10638	0.26947	-1.2924	0.11402	0.2214	-1.1278	0.046688	0.26391	-1.2096	0.025517	0.28949
172	1.72	-0.70794	1.5647	0.20194	-0.6833	1.5536	0.31316	-0.86583	1.6529	0.23681	-0.82239	1.6248	0.36016	-0.97718	1.524	0.29997	-1.1933	1.2795	0.28543	-0.90468	1.3848	0.28007	-0.97224	1.2296	0.25717	-1.0569	1.4443	0.43028	-0.965	1.488	0.12022	-1.1562	1.1826	0.0080822	-1.105	0.88389	-0.017263	-1.18	0.88023	-0.038844	-1.1304	0.82351	-0.066335	-0.90429	1.4318	0.44142	-1.1239	1.1341	0.53455	-1.0939	0.84104	0.46793	-1.1592	0.83622	0.50733	-1.1147	0.77112	0.51349	-1.0875	1.042	0.12088	-1.0535	0.99993	0.3473	-1.2567	1.0812	0.25816	-1.234	1.0875	0.31721	-1.2455	1.1145	0.21134	-1.1251	0.73583	0.040938	-1.0452	0.79485	0.02902	-1.0462	0.70577	0.022523	-1.0036	0.5543	0.035257	-1.1715	0.49037	0.043785	-1.1859	0.55473	0.047554	-1.2276	0.50795	0.053084	-1.3948	0.47231	0.1016	-1.4071	0.50427	0.14225	-1.3935	0.32136	0.094409	-1.4564	0.38587	0.078841	-1.0603	0.71537	0.38616	-1.152	0.68129	0.36243	-1.0785	0.6369	0.36469	-1.0522	0.48077	0.32026	-1.1172	0.28997	0.31158	-1.1778	0.31314	0.32143	-1.1673	0.25902	0.31171	-1.2441	0.10662	0.26931	-1.2917	0.11438	0.22144	-1.1276	0.046796	0.2637	-1.2095	0.025586	0.2894
173	1.73	-0.70314	1.5585	0.20238	-0.6784	1.5474	0.31405	-0.86105	1.6458	0.23802	-0.81778	1.6181	0.36139	-0.9718	1.5177	0.30102	-1.1905	1.276	0.28505	-0.90037	1.3778	0.2806	-0.97007	1.224	0.25692	-1.0518	1.4382	0.43123	-0.95888	1.4819	0.12106	-1.1508	1.1766	0.0076266	-1.1012	0.87789	-0.018883	-1.1766	0.87465	-0.039529	-1.1273	0.81796	-0.06838	-0.9002	1.4238	0.44206	-1.1203	1.1274	0.53542	-1.0922	0.83446	0.46701	-1.157	0.82992	0.50745	-1.1132	0.76426	0.51193	-1.0875	1.0382	0.11999	-1.0533	0.99601	0.34624	-1.2561	1.078	0.25745	-1.2333	1.0844	0.3165	-1.2446	1.1113	0.21036	-1.1244	0.73234	0.040867	-1.0448	0.79157	0.028709	-1.0454	0.70236	0.021668	-1.002	0.55123	0.035214	-1.1699	0.48721	0.044084	-1.1845	0.55161	0.047468	-1.226	0.50459	0.053281	-1.3931	0.46927	0.10165	-1.4055	0.5013	0.14244	-1.3918	0.31816	0.09504	-1.4549	0.38298	0.079159	-1.057	0.71279	0.38479	-1.1484	0.67738	0.36121	-1.0745	0.63388	0.36351	-1.0466	0.47867	0.31868	-1.1134	0.28835	0.3103	-1.1736	0.31242	0.32074	-1.1638	0.25832	0.31119	-1.2431	0.10699	0.26907	-1.2908	0.11516	0.22153	-1.1273	0.046874	0.26353	-1.2096	0.026054	0.28925
174	1.74	-0.69861	1.5523	0.20393	-0.67356	1.5411	0.31507	-0.85738	1.639	0.23937	-0.81321	1.6109	0.36267	-0.96639	1.5114	0.3021	-1.1877	1.2723	0.28484	-0.8955	1.3721	0.2831	-0.96731	1.2176	0.25691	-1.0469	1.4318	0.43211	-0.95281	1.4755	0.12174	-1.1448	1.1701	0.0083027	-1.0971	0.87143	-0.020418	-1.1727	0.86861	-0.040475	-1.1241	0.81249	-0.070397	-0.89476	1.4164	0.44239	-1.1166	1.1207	0.53646	-1.09	0.82829	0.46656	-1.1543	0.82343	0.50741	-1.1114	0.75725	0.51047	-1.0871	1.0343	0.11914	-1.053	0.99162	0.34527	-1.2554	1.0748	0.25666	-1.2326	1.081	0.31569	-1.2436	1.1082	0.20954	-1.1236	0.72847	0.040527	-1.0442	0.78793	0.028686	-1.0445	0.69901	0.021268	-1.0007	0.54809	0.035235	-1.1679	0.48408	0.043981	-1.1831	0.54809	0.047737	-1.2245	0.50105	0.053361	-1.3911	0.46587	0.10197	-1.4039	0.49787	0.14258	-1.3899	0.31459	0.095631	-1.4526	0.37927	0.079692	-1.0537	0.71006	0.38336	-1.1448	0.67359	0.36035	-1.0702	0.63089	0.36242	-1.0409	0.47613	0.31718	-1.1095	0.28696	0.30914	-1.1693	0.31159	0.31992	-1.1604	0.25724	0.31025	-1.2422	0.10734	0.26897	-1.2899	0.11605	0.22173	-1.1272	0.046921	0.26336	-1.2095	0.026279	0.28934
175	1.75	-0.69385	1.5454	0.20477	-0.6688	1.5346	0.3162	-0.85298	1.6316	0.24072	-0.80888	1.6036	0.36393	-0.96124	1.5047	0.30289	-1.1848	1.2682	0.28449	-0.89184	1.364	0.28208	-0.96462	1.211	0.25684	-1.0421	1.4254	0.43284	-0.94692	1.4692	0.12251	-1.1388	1.1636	0.0081392	-1.0928	0.86518	-0.022276	-1.1686	0.86292	-0.041074	-1.1201	0.80678	-0.072245	-0.89007	1.4084	0.44281	-1.1127	1.1138	0.53744	-1.0876	0.82172	0.46597	-1.1515	0.81669	0.50752	-1.1093	0.7504	0.50927	-1.0867	1.0297	0.11856	-1.0526	0.98729	0.34424	-1.2547	1.0712	0.25586	-1.2318	1.0775	0.31495	-1.2426	1.1047	0.20875	-1.1223	0.72461	0.039839	-1.0436	0.78418	0.028249	-1.0435	0.69549	0.021138	-0.9992	0.54458	0.03531	-1.1661	0.48027	0.044699	-1.1817	0.54443	0.047705	-1.2226	0.49716	0.05344	-1.3894	0.4619	0.10215	-1.402	0.49396	0.14274	-1.3877	0.31074	0.096436	-1.4512	0.3752	0.080395	-1.0503	0.70711	0.38198	-1.1409	0.66977	0.3594	-1.0659	0.62783	0.36133	-1.0354	0.47383	0.3157	-1.1056	0.28566	0.30856	-1.1651	0.31075	0.31933	-1.1571	0.25619	0.30973	-1.2411	0.10775	0.26918	-1.2891	0.11676	0.22224	-1.1271	0.046947	0.2633	-1.2093	0.025951	0.28962
